#!OML:ASF C:\Vicon Data\Big\jianyuan-13\jianyuan\Session 1\Capture.male.ASF
:FULLY-SPECIFIED
:DEGREES
237
root -9.326789 17.423304 -8.953922 8.221314 1.116064 4.314807
lowerback -11.119326 -2.413522 -6.312499 
upperback 3.038588 -2.246038 -0.513634 
thorax 9.777226 -1.437042 2.563632 
lowerneck -3.062792 -1.811151 2.288269 
upperneck 24.508531 -2.311943 -2.017982 
head 8.000708 -1.067891 -1.236207 
rclavicle 0.000000 0.000000 
rhumerus -41.772500 -23.197201 -73.568655 
rradius 26.445903 
rwrist 35.408315 
rhand -17.732360 -16.868280 
rfingers 0.000000 
rthumb 8.528613 -46.676027 
lclavicle 0.000000 0.000000 
lhumerus -10.473873 2.490720 99.509706 
lradius 41.291786 
lwrist -31.179069 
lhand -20.836807 3.023426 
lfingers 0.000000 
lthumb 5.531916 32.931263 
rfemur -37.106132 7.066608 13.784645 
rtibia 25.338272 
rfoot -8.253153 -4.729219 
rtoes -39.485118 
lfemur -1.276998 -5.106054 -29.658598 
ltibia 12.438279 
lfoot -8.472334 -10.331068 
ltoes -18.450283 
238
root -9.334913 17.423695 -8.885533 8.278734 1.155240 4.357880
lowerback -11.189436 -2.463126 -6.388493 
upperback 3.002884 -2.298046 -0.501272 
thorax 9.788618 -1.466329 2.607534 
lowerneck -3.070325 -1.768462 2.342634 
upperneck 24.513052 -2.246624 -2.075446 
head 8.003537 -1.037469 -1.259878 
rclavicle 0.000000 0.000000 
rhumerus -41.869155 -23.038613 -73.627178 
rradius 26.497888 
rwrist 34.932527 
rhand -17.820214 -16.905576 
rfingers 0.000000 
rthumb 8.443835 -46.716805 
lclavicle 0.000000 0.000000 
lhumerus -10.377411 2.187657 99.570392 
lradius 41.444265 
lwrist -30.988779 
lhand -20.869288 3.107387 
lfingers 0.000000 
lthumb 5.500543 33.016032 
rfemur -36.931993 6.873936 14.078165 
rtibia 25.002536 
rfoot -8.163244 -4.956931 
rtoes -39.285662 
lfemur -1.006855 -5.055189 -29.683162 
ltibia 12.268609 
lfoot -8.351634 -10.320303 
ltoes -18.599561 
239
root -9.341582 17.423096 -8.820198 8.369117 1.174699 4.364516
lowerback -11.298938 -2.522428 -6.426838 
upperback 2.970134 -2.368852 -0.452464 
thorax 9.828068 -1.504421 2.664303 
lowerneck -3.121729 -1.733019 2.370547 
upperneck 24.514395 -2.159132 -2.269217 
head 8.011805 -1.011382 -1.323199 
rclavicle 0.000000 0.000000 
rhumerus -41.957389 -23.187958 -73.507070 
rradius 26.458129 
rwrist 35.235004 
rhand -17.865689 -16.947857 
rfingers 0.000000 
rthumb 8.399918 -46.760816 
lclavicle 0.000000 0.000000 
lhumerus -10.260469 2.045138 99.667893 
lradius 41.569343 
lwrist -30.873651 
lhand -20.922455 3.041017 
lfingers 0.000000 
lthumb 5.449180 32.950980 
rfemur -36.803309 6.666253 14.394688 
rtibia 24.687479 
rfoot -8.102211 -5.087032 
rtoes -38.799216 
lfemur -0.812986 -4.946660 -29.666668 
ltibia 12.157199 
lfoot -8.256557 -10.350719 
ltoes -18.601369 
240
root -9.349012 17.421656 -8.753205 8.455118 1.259521 4.225290
lowerback -11.436845 -2.557549 -6.282407 
upperback 2.937837 -2.431731 -0.415195 
thorax 9.873465 -1.527539 2.606665 
lowerneck -3.069095 -1.735617 2.376811 
upperneck 24.461405 -2.162658 -2.269482 
head 7.984197 -1.012916 -1.323199 
rclavicle 0.000000 0.000000 
rhumerus -42.171628 -23.474418 -73.359444 
rradius 26.444102 
rwrist 35.728239 
rhand -17.865597 -16.916778 
rfingers 0.000000 
rthumb 8.400056 -46.729761 
lclavicle 0.000000 0.000000 
lhumerus -10.158949 1.877515 99.743958 
lradius 41.699663 
lwrist -30.734511 
lhand -20.932522 3.095789 
lfingers 0.000000 
lthumb 5.439500 33.005938 
rfemur -36.642623 6.313431 14.958502 
rtibia 24.387756 
rfoot -7.919592 -5.130002 
rtoes -38.946870 
lfemur -0.620813 -4.870028 -29.474372 
ltibia 12.084444 
lfoot -8.222381 -10.431576 
ltoes -18.897033 
241
root -9.355828 17.420700 -8.690035 8.506538 1.357369 4.214647
lowerback -11.485248 -2.561586 -6.242670 
upperback 2.913596 -2.436642 -0.453667 
thorax 9.871438 -1.525419 2.540810 
lowerneck -3.153706 -1.731379 2.510779 
upperneck 24.517027 -2.187958 -2.207110 
head 8.017198 -1.007154 -1.329075 
rclavicle 0.000000 0.000000 
rhumerus -42.310620 -23.410663 -73.483109 
rradius 26.543974 
rwrist 35.571740 
rhand -17.814726 -16.918919 
rfingers 0.000000 
rthumb 8.449146 -46.729925 
lclavicle 0.000000 0.000000 
lhumerus -10.046437 1.576873 99.779063 
lradius 41.770116 
lwrist -30.558493 
lhand -20.907880 3.109772 
lfingers 0.000000 
lthumb 5.463270 33.019333 
rfemur -36.439498 6.236790 15.192024 
rtibia 24.092447 
rfoot -7.902743 -5.352081 
rtoes -38.445991 
lfemur -0.421617 -4.949921 -29.429602 
ltibia 12.043100 
lfoot -8.209296 -10.383098 
ltoes -19.023999 
242
root -9.362621 17.419370 -8.627212 8.609912 1.427023 4.256715
lowerback -11.600870 -2.601629 -6.284000 
upperback 2.876282 -2.476247 -0.454384 
thorax 9.904078 -1.546533 2.551837 
lowerneck -3.181516 -1.725962 2.508729 
upperneck 24.500146 -2.182997 -2.198860 
head 8.016818 -1.004479 -1.325738 
rclavicle 0.000000 0.000000 
rhumerus -42.420149 -23.470666 -73.416316 
rradius 26.526224 
rwrist 35.624061 
rhand -17.763182 -16.832560 
rfingers 0.000000 
rthumb 8.498883 -46.641551 
lclavicle 0.000000 0.000000 
lhumerus -10.023478 1.297595 99.837340 
lradius 41.886279 
lwrist -30.606680 
lhand -21.021181 3.192236 
lfingers 0.000000 
lthumb 5.353902 33.104572 
rfemur -36.292271 6.120791 15.390016 
rtibia 23.821080 
rfoot -7.846834 -5.505355 
rtoes -38.207061 
lfemur -0.288594 -4.926519 -29.432112 
ltibia 12.010260 
lfoot -8.105709 -10.426365 
ltoes -18.745982 
243
root -9.369267 17.416934 -8.564957 8.660222 1.452764 4.260651
lowerback -11.671183 -2.641366 -6.292693 
upperback 2.842818 -2.525796 -0.433842 
thorax 9.914647 -1.570947 2.566852 
lowerneck -3.140403 -1.705681 2.380291 
upperneck 24.479276 -2.163614 -2.091089 
head 8.006080 -0.997133 -1.265832 
rclavicle 0.000000 0.000000 
rhumerus -42.513002 -23.316645 -73.471517 
rradius 26.610465 
rwrist 35.361034 
rhand -17.719256 -16.795513 
rfingers 0.000000 
rthumb 8.541262 -46.602747 
lclavicle 0.000000 0.000000 
lhumerus -9.978036 1.212374 99.890648 
lradius 41.955518 
lwrist -30.593721 
lhand -20.986508 3.127133 
lfingers 0.000000 
lthumb 5.387347 33.038601 
rfemur -36.093226 6.059922 15.603607 
rtibia 23.588754 
rfoot -7.873285 -5.606899 
rtoes -37.951784 
lfemur -0.100386 -4.881895 -29.412707 
ltibia 11.984644 
lfoot -8.018589 -10.445733 
ltoes -18.673121 
244
root -9.377336 17.415144 -8.503750 8.724808 1.539399 4.210181
lowerback -11.758764 -2.706584 -6.252714 
upperback 2.815135 -2.617845 -0.388251 
thorax 9.944552 -1.614304 2.571732 
lowerneck -3.123903 -1.670562 2.329991 
upperneck 24.432612 -2.105825 -2.106787 
head 7.989037 -0.976131 -1.257349 
rclavicle 0.000000 0.000000 
rhumerus -42.562340 -23.148233 -73.519571 
rradius 26.655912 
rwrist 35.282300 
rhand -17.612615 -16.817658 
rfingers 0.000000 
rthumb 8.644158 -46.620737 
lclavicle 0.000000 0.000000 
lhumerus -9.889978 1.217776 99.938922 
lradius 42.014760 
lwrist -30.474989 
lhand -20.939349 3.041236 
lfingers 0.000000 
lthumb 5.432898 32.951599 
rfemur -35.910550 6.028851 15.838371 
rtibia 23.391810 
rfoot -7.932546 -5.679710 
rtoes -37.481048 
lfemur 0.063531 -4.845645 -29.308746 
ltibia 11.955996 
lfoot -7.870097 -10.578464 
ltoes -18.532884 
